<svg width="20" height="20" viewBox="0 0 20 20" fill="none" xmlns="http://www.w3.org/2000/svg">
<path d="M7.5 13.4749L4.60833 10.5833C4.45252 10.4275 4.24119 10.3399 4.02083 10.3399C3.80048 10.3399 3.58915 10.4275 3.43333 10.5833C3.27752 10.7391 3.18998 10.9504 3.18998 11.1708C3.18998 11.2799 3.21147 11.3879 3.25323 11.4887C3.29498 11.5895 3.35618 11.6811 3.43333 11.7583L6.91667 15.2416C7.24167 15.5666 7.76667 15.5666 8.09167 15.2416L16.9083 6.42494C17.0641 6.26913 17.1517 6.0578 17.1517 5.83744C17.1517 5.61709 17.0641 5.40576 16.9083 5.24994C16.7525 5.09413 16.5412 5.00659 16.3208 5.00659C16.1005 5.00659 15.8891 5.09413 15.7333 5.24994L7.5 13.4749Z" fill="black"/>
</svg>
