<svg width="26" height="37" viewBox="0 0 26 37" fill="none" xmlns="http://www.w3.org/2000/svg">
<path d="M12.485 1.44722C12.0278 5.72333 10.1931 9.32817 8.92774 11.1819C8.66085 11.573 8.11312 11.6061 7.76344 11.287C6.24672 9.90274 4.09153 8.22698 4.14726 9.481C4.21154 10.9273 3.12953 13.1904 2.58049 14.1412C0.330757 18.7049 -0.0709805 22.0688 0.00936691 23.1802C0.0736449 33.754 8.84759 37 13.3872 37C25.733 35.5407 26.4896 25.3568 25.0802 19.0851C24.9265 18.4015 23.9862 18.2799 23.4894 18.774C23.0171 19.2438 22.5215 19.596 22.0759 19.8482C21.5697 20.1346 21.0544 19.6797 21.1241 19.1023C22.1925 10.2468 17.2534 3.76942 13.7426 0.867788C13.256 0.465636 12.5522 0.819535 12.485 1.44722Z" fill="#FFA85E"/>
<path d="M13.6081 14.331C13.1433 16.5282 12.1332 18.3548 11.3581 19.4345C11.0822 19.8188 10.5348 19.8219 10.1976 19.49C9.33205 18.6381 8.26153 17.7658 8.25276 18.4789C8.2417 19.3779 7.49054 20.7431 7.11634 21.3133C5.55951 24.0637 5.19172 26.1354 5.20242 26.8274C4.86983 33.3861 10.4007 35.8 13.0172 35.8682C20.3156 35.4238 21.4491 29.769 20.9959 25.8255C20.9174 25.1423 19.7329 25.1577 19.1262 25.4813C18.6223 25.7499 18.4384 25.1694 18.5195 24.6042C19.2231 19.6987 16.8656 15.864 14.9041 13.8597C14.4626 13.4086 13.7388 13.7136 13.6081 14.331Z" fill="#FFE17D"/>
<path d="M12.1062 23.9157C5.71132 31.4328 10.1216 34.7699 13.2182 34.908C13.2777 34.9106 13.3392 34.9047 13.3976 34.8925C19.1082 33.6924 16.838 28.5994 16.0387 27.7601C15.5036 27.1983 14.274 25.4316 13.4319 24.0481C13.1431 23.5735 12.4662 23.4925 12.1062 23.9157Z" fill="white"/>
</svg>
