<svg width="39" height="44" viewBox="0 0 39 44" fill="none" xmlns="http://www.w3.org/2000/svg">
<path d="M18.1959 4.549C18.6893 3.8441 19.7332 3.84409 20.2267 4.549L23.7576 9.5933C24.0339 9.98803 24.5139 10.1869 24.9884 10.1031L31.0519 9.03298C31.8993 8.88344 32.6375 9.62163 32.4879 10.469L31.4178 16.5326C31.3341 17.007 31.5329 17.4871 31.9276 17.7634L36.9719 21.2943C37.6768 21.7877 37.6768 22.8316 36.9719 23.3251L31.9276 26.8559C31.5329 27.1322 31.3341 27.6123 31.4178 28.0868L32.4879 34.1503C32.6375 34.9977 31.8993 35.7359 31.052 35.5863L24.9884 34.5162C24.5139 34.4324 24.0339 34.6313 23.7576 35.026L20.2267 40.0703C19.7332 40.7752 18.6893 40.7752 18.1959 40.0703L14.665 35.026C14.3887 34.6313 13.9087 34.4324 13.4342 34.5162L7.37059 35.5863C6.52324 35.7359 5.78505 34.9977 5.9346 34.1503L7.00474 28.0868C7.08848 27.6123 6.88965 27.1322 6.49492 26.8559L1.45062 23.3251C0.745707 22.8316 0.745706 21.7877 1.45062 21.2943L6.49492 17.7634C6.88964 17.4871 7.08848 17.007 7.00474 16.5326L5.9346 10.469C5.78505 9.62163 6.52324 8.88344 7.37058 9.03298L13.4342 10.1031C13.9087 10.1869 14.3887 9.98803 14.665 9.59331L18.1959 4.549Z" fill="#FFCB2F"/>
<path d="M14.9236 25.5392H14.0312C13.8638 25.5392 13.6872 25.4462 13.5757 25.2603L11.1309 21.3932L11.0658 25.2324C11.0658 25.4183 10.9729 25.5113 10.7869 25.5113H9.87596C9.69004 25.5113 9.59708 25.4183 9.59708 25.2324L9.48553 18.8369C9.48553 18.651 9.56919 18.558 9.75511 18.558H10.7033C10.8892 18.558 11.0658 18.6882 11.1588 18.8369L13.7337 22.7969V18.8648C13.7337 18.6789 13.8174 18.5859 14.0033 18.5859H15.1374C15.3233 18.5859 15.4162 18.6789 15.4069 18.8648L15.2024 25.2603C15.1931 25.4462 15.1095 25.5392 14.9236 25.5392ZM21.7635 24.1541L21.9029 24.9256C21.9401 25.1208 21.8658 25.2138 21.7077 25.251C20.2018 25.567 18.9097 25.6321 17.3015 25.6135C16.8832 25.6042 16.6601 25.3904 16.6508 24.9721L16.5393 19.218C16.53 18.7811 16.8089 18.5673 17.19 18.5673L21.5497 18.5487C21.7449 18.5487 21.8751 18.6789 21.8751 18.8741V19.6363C21.8751 19.8315 21.7449 19.9617 21.5497 19.9617L18.2218 20.0082V21.3932L21.1779 21.3375C21.3731 21.3375 21.5032 21.4676 21.5032 21.6628V22.4251C21.5032 22.6203 21.3731 22.7504 21.1779 22.7504L18.2218 22.7783L18.2311 24.1913C19.4303 24.2099 20.4342 24.1448 21.4567 23.9682C21.652 23.931 21.7356 23.9868 21.7635 24.1541ZM28.5591 25.5113H27.6946H27.6481H27.6109C27.4157 25.5113 27.3785 25.3997 27.3134 25.2045C26.9881 24.0146 26.6627 22.8527 26.3374 21.6256C26.012 22.8527 25.696 24.0146 25.3706 25.2045C25.3056 25.3997 25.2684 25.5113 25.0732 25.5113H25.0267H24.9895H24.2087H24.1622H24.125C23.9298 25.5113 23.9112 25.3997 23.8275 25.2045C23.3999 23.429 22.7957 21.0679 22.2751 19.2366C22.2101 19.0135 22.2565 18.8648 22.4425 18.8183L23.4929 18.5394C23.6881 18.4837 23.8647 18.5208 23.9019 18.7068C24.125 19.7758 24.3946 21.1144 24.6734 22.4344C25.0081 21.2166 25.3334 20.0082 25.5565 19.1158C25.603 18.9299 25.6402 18.8369 25.8354 18.8369H25.9098H25.9656H26.8487C27.0439 18.8369 27.0811 18.9299 27.1275 19.1158C27.3506 20.0268 27.6853 21.2538 28.0199 22.4994L28.8565 18.7161C28.8937 18.5301 29.0796 18.493 29.2656 18.5487L30.1394 18.7997C30.3253 18.8555 30.3625 18.9949 30.3067 19.218C29.8698 20.9935 29.3678 23.1037 28.8565 25.2045C28.7915 25.3997 28.7543 25.5113 28.5591 25.5113Z" fill="white"/>
</svg>
