<svg width="17" height="16" viewBox="0 0 17 16" fill="none" xmlns="http://www.w3.org/2000/svg">
<path d="M12.5209 14.6666C11.9653 14.6666 11.4931 14.4721 11.1042 14.0833C10.7153 13.6944 10.5209 13.2221 10.5209 12.6666C10.5209 12.5888 10.5264 12.5081 10.5375 12.4246C10.5487 12.341 10.5653 12.2661 10.5875 12.1999L5.88754 9.46658C5.69865 9.63325 5.48754 9.76392 5.25421 9.85858C5.02087 9.95325 4.77643 10.0004 4.52087 9.99992C3.96532 9.99992 3.4931 9.80547 3.10421 9.41658C2.71532 9.0277 2.52087 8.55547 2.52087 7.99992C2.52087 7.44436 2.71532 6.97214 3.10421 6.58325C3.4931 6.19436 3.96532 5.99992 4.52087 5.99992C4.77643 5.99992 5.02087 6.04725 5.25421 6.14192C5.48754 6.23659 5.69865 6.36703 5.88754 6.53325L10.5875 3.79992C10.5653 3.73325 10.5487 3.65836 10.5375 3.57525C10.5264 3.49214 10.5209 3.41147 10.5209 3.33325C10.5209 2.7777 10.7153 2.30547 11.1042 1.91659C11.4931 1.5277 11.9653 1.33325 12.5209 1.33325C13.0764 1.33325 13.5487 1.5277 13.9375 1.91659C14.3264 2.30547 14.5209 2.7777 14.5209 3.33325C14.5209 3.88881 14.3264 4.36103 13.9375 4.74992C13.5487 5.13881 13.0764 5.33325 12.5209 5.33325C12.2653 5.33325 12.0209 5.28614 11.7875 5.19192C11.5542 5.0977 11.3431 4.96703 11.1542 4.79992L6.45421 7.53325C6.47643 7.59992 6.4931 7.67503 6.50421 7.75858C6.51532 7.84214 6.52087 7.92259 6.52087 7.99992C6.52087 8.0777 6.51532 8.15836 6.50421 8.24192C6.4931 8.32547 6.47643 8.40036 6.45421 8.46658L11.1542 11.1999C11.3431 11.0333 11.5542 10.9028 11.7875 10.8086C12.0209 10.7144 12.2653 10.667 12.5209 10.6666C13.0764 10.6666 13.5487 10.861 13.9375 11.2499C14.3264 11.6388 14.5209 12.111 14.5209 12.6666C14.5209 13.2221 14.3264 13.6944 13.9375 14.0833C13.5487 14.4721 13.0764 14.6666 12.5209 14.6666Z" fill="#B9B9B9"/>
</svg>
