<svg width="13" height="12" viewBox="0 0 13 12" fill="none" xmlns="http://www.w3.org/2000/svg">
<path d="M2.45789 4.7709L5.30126 7.4697L12.0001 1.06006" stroke="#38AF61" stroke-width="1.15663" stroke-linecap="round"/>
<mask id="path-2-inside-1_90_94" fill="white">
<path d="M10.5454 5.07055C10.8794 5.03551 11.1821 5.27834 11.1807 5.61421C11.1761 6.68337 10.8649 7.73354 10.2775 8.63709C9.57926 9.71133 8.53318 10.5131 7.31438 10.9082C6.09559 11.3034 4.77806 11.2678 3.58232 10.8076C2.38659 10.3474 1.38522 9.49043 0.745842 8.38012C0.106463 7.26982 -0.132126 5.97358 0.0700119 4.70839C0.27215 3.44319 0.902747 2.28582 1.85625 1.43001C2.80975 0.574194 4.02829 0.0718784 5.3079 0.00714068C6.38417 -0.0473103 7.44871 0.210584 8.37572 0.743296C8.66693 0.910648 8.72503 1.29434 8.52705 1.56567C8.32907 1.83699 7.95012 1.89217 7.65397 1.73371C6.95644 1.36048 6.16702 1.18156 5.36935 1.22191C4.36816 1.27257 3.41474 1.66559 2.6687 2.3352C1.92266 3.00481 1.42926 3.91036 1.27111 4.90028C1.11295 5.8902 1.29963 6.90441 1.79989 7.77314C2.30016 8.64187 3.08365 9.31239 4.01922 9.67248C4.95479 10.0326 5.98566 10.0604 6.93928 9.7512C7.89289 9.44205 8.71137 8.81471 9.25772 7.9742C9.693 7.30455 9.93449 6.53196 9.9618 5.74133C9.97339 5.40565 10.2113 5.10559 10.5454 5.07055Z"/>
</mask>
<path d="M10.5454 5.07055C10.8794 5.03551 11.1821 5.27834 11.1807 5.61421C11.1761 6.68337 10.8649 7.73354 10.2775 8.63709C9.57926 9.71133 8.53318 10.5131 7.31438 10.9082C6.09559 11.3034 4.77806 11.2678 3.58232 10.8076C2.38659 10.3474 1.38522 9.49043 0.745842 8.38012C0.106463 7.26982 -0.132126 5.97358 0.0700119 4.70839C0.27215 3.44319 0.902747 2.28582 1.85625 1.43001C2.80975 0.574194 4.02829 0.0718784 5.3079 0.00714068C6.38417 -0.0473103 7.44871 0.210584 8.37572 0.743296C8.66693 0.910648 8.72503 1.29434 8.52705 1.56567C8.32907 1.83699 7.95012 1.89217 7.65397 1.73371C6.95644 1.36048 6.16702 1.18156 5.36935 1.22191C4.36816 1.27257 3.41474 1.66559 2.6687 2.3352C1.92266 3.00481 1.42926 3.91036 1.27111 4.90028C1.11295 5.8902 1.29963 6.90441 1.79989 7.77314C2.30016 8.64187 3.08365 9.31239 4.01922 9.67248C4.95479 10.0326 5.98566 10.0604 6.93928 9.7512C7.89289 9.44205 8.71137 8.81471 9.25772 7.9742C9.693 7.30455 9.93449 6.53196 9.9618 5.74133C9.97339 5.40565 10.2113 5.10559 10.5454 5.07055Z" fill="white" stroke="#33AC5F" stroke-width="1.5" mask="url(#path-2-inside-1_90_94)"/>
</svg>
